<svg xmlns="http://www.w3.org/2000/svg" xmlns:xlink="http://www.w3.org/1999/xlink" version="1.1" style="" xml:space="preserve" width="178" height="178"><rect id="backgroundrect" width="100%" height="100%" x="0" y="0" fill="none" stroke="none" class="" style=""/>
<style type="text/css">
	.st0{fill:#F15A24;}
</style>








<g class="currentLayer" style=""><title>Layer 1</title><g id="LINE" class="">
	<line class="st0" x1="28.55242919921875" y1="154.46990966796875" x2="34.25242614746094" y2="147.669921875" id="svg_1"/>
</g><g id="LINE_1_" class="">
	<line class="st0" x1="137.25242614746094" y1="24.96990966796875" x2="142.9524383544922" y2="18.069915771484375" id="svg_2"/>
</g><g id="LINE_7_" class="">
	<polygon class="st0" points="128.35243225097656,142.669921875 91.85243225097656,142.669921875 84.65242004394531,130.169921875 106.75242614746094,130.169921875 87.95243835449219,97.56991577148438 96.45243835449219,87.36990356445312 " id="svg_3"/>
</g><g id="LINE_15_" class="">
	<polygon class="st0" points="54.55244445800781,142.669921875 54.55244445800781,35.669921875 67.05244445800781,35.669921875 67.05244445800781,89.169921875 107.15242004394531,41.369903564453125 123.45243835449219,41.369903564453125 67.05244445800781,108.56991577148438 67.05244445800781,142.669921875 " id="svg_4"/>
</g><g id="LINE_16_" class="">
	<line class="st0" x1="149.75242614746094" y1="23.7698974609375" x2="144.0524444580078" y2="30.669921875" id="svg_5"/>
</g><g id="LINE_17_" class="">
	<line class="st0" x1="41.05244445800781" y1="153.36990356445312" x2="35.35243225097656" y2="160.169921875" id="svg_6"/>
</g><g id="ARC_1_" class="">
	<path class="st0" d="M34.25243225097654,147.66990966796874 c-29.8,-28 -33.8,-73.9 -9.3,-106.6 c26.5,-35.5 76.8,-42.7 112.3,-16.2 l5.7,-6.8 c-39.2,-29.7 -95.1,-22 -124.9,17.3 c-27.6,36.5 -23.1,88 10.4,119.1 " id="svg_7"/>
</g><g id="ARC_3_" class="">
	<path class="st0" d="M41.05243225097655,153.36990966796873 c35.5,26.5 85.7,19.3 112.3,-16.2 c24.5,-32.7 20.5,-78.6 -9.3,-106.6 l5.7,-6.8 c33.6,31.1 38.1,82.6 10.4,119.1 c-29.7,39.2 -85.6,47 -124.9,17.3 " id="svg_8"/>
</g></g></svg>