<?xml version="1.0" encoding="UTF-8" standalone="no"?>
<!DOCTYPE svg PUBLIC "-//W3C//DTD SVG 1.1//EN" "http://www.w3.org/Graphics/SVG/1.1/DTD/svg11.dtd">
<svg version="1.1" xmlns="http://www.w3.org/2000/svg" xmlns:xlink="http://www.w3.org/1999/xlink" preserveAspectRatio="xMidYMid meet" viewBox="0 0 640 640" width="640" height="640"><defs><path d="M0 0L643 0L643 643L0 643L0 0Z" id="bWequK3d3"></path><path d="M634.37 -5.85C634.37 -5.85 634.37 -5.85 634.37 -5.85C634.37 377.69 634.37 590.78 634.37 633.39C634.37 633.39 634.37 633.39 634.37 633.39C250.82 633.39 37.74 633.39 -4.88 633.39C-4.88 633.39 -4.88 633.39 -4.88 633.39C-4.88 249.84 -4.88 36.76 -4.88 -5.85C-4.88 -5.85 -4.88 -5.85 -4.88 -5.85C378.67 -5.85 591.75 -5.85 634.37 -5.85Z" id="d6q6iQFZGi"></path><path d="M102.54 554.74L123.01 530.32" id="g8ew0Meo9"></path><path d="M492.91 89.67L513.38 64.89" id="aJGEnapkm"></path><path d="M329.87 512.37L304.01 467.47L383.38 467.47L315.86 350.4L346.39 313.77L460.95 512.37L329.87 512.37Z" id="eAnzVZl9k"></path><path d="M195.91 128.1L240.8 128.1L240.8 320.23L384.81 148.57L443.35 148.57L240.8 389.9L240.8 512.37L195.91 512.37L195.91 128.1Z" id="dM4FJ8Zjb"></path><path d="M537.8 85.36L517.33 110.14" id="bR93uMgjU"></path><path d="M147.43 550.79L126.96 575.21" id="bmiRUz2Je"></path><path d="M123.01 530.32C15.99 429.77 1.62 264.93 89.61 147.49C184.78 20 365.42 -5.85 492.91 89.31C494.96 86.87 511.33 67.34 513.38 64.89C372.6 -41.77 171.85 -14.11 64.83 127.02C-34.29 258.1 -18.13 443.05 102.18 554.74" id="e2tPT16hHU"></path><path d="M147.43 550.79C274.92 645.96 455.2 620.1 550.73 492.61C638.72 375.18 624.35 210.34 517.33 109.78C519.38 107.34 535.75 87.81 537.8 85.36C658.47 197.05 674.63 382 575.15 513.08C468.49 653.86 267.74 681.87 126.6 575.21" id="d1ciYW2Zkq"></path></defs><g><g><g><use xlink:href="#bWequK3d3" opacity="0.75" fill="#000000" fill-opacity="1"></use></g><g><use xlink:href="#d6q6iQFZGi" opacity="1" fill="#000000" fill-opacity="0"></use><g><use xlink:href="#d6q6iQFZGi" opacity="1" fill-opacity="0" stroke="#000000" stroke-width="1" stroke-opacity="0"></use></g></g><g><use xlink:href="#g8ew0Meo9" opacity="1" fill="#f15a24" fill-opacity="1"></use><g><use xlink:href="#g8ew0Meo9" opacity="1" fill-opacity="0" stroke="#000000" stroke-width="1" stroke-opacity="0"></use></g></g><g><use xlink:href="#aJGEnapkm" opacity="1" fill="#f15a24" fill-opacity="1"></use><g><use xlink:href="#aJGEnapkm" opacity="1" fill-opacity="0" stroke="#000000" stroke-width="1" stroke-opacity="0"></use></g></g><g><use xlink:href="#eAnzVZl9k" opacity="1" fill="#f15a24" fill-opacity="1"></use><g><use xlink:href="#eAnzVZl9k" opacity="1" fill-opacity="0" stroke="#000000" stroke-width="1" stroke-opacity="0"></use></g></g><g><use xlink:href="#dM4FJ8Zjb" opacity="1" fill="#f15a24" fill-opacity="1"></use><g><use xlink:href="#dM4FJ8Zjb" opacity="1" fill-opacity="0" stroke="#000000" stroke-width="1" stroke-opacity="0"></use></g></g><g><use xlink:href="#bR93uMgjU" opacity="1" fill="#f15a24" fill-opacity="1"></use><g><use xlink:href="#bR93uMgjU" opacity="1" fill-opacity="0" stroke="#000000" stroke-width="1" stroke-opacity="0"></use></g></g><g><use xlink:href="#bmiRUz2Je" opacity="1" fill="#f15a24" fill-opacity="1"></use><g><use xlink:href="#bmiRUz2Je" opacity="1" fill-opacity="0" stroke="#000000" stroke-width="1" stroke-opacity="0"></use></g></g><g><use xlink:href="#e2tPT16hHU" opacity="1" fill="#f15a24" fill-opacity="1"></use><g><use xlink:href="#e2tPT16hHU" opacity="1" fill-opacity="0" stroke="#000000" stroke-width="1" stroke-opacity="0"></use></g></g><g><use xlink:href="#d1ciYW2Zkq" opacity="1" fill="#f15a24" fill-opacity="1"></use><g><use xlink:href="#d1ciYW2Zkq" opacity="1" fill-opacity="0" stroke="#000000" stroke-width="1" stroke-opacity="0"></use></g></g></g></g></svg>